<?xml version="1.0" encoding="UTF-8" standalone="no"?>
<!-- Created with Inkscape (http://www.inkscape.org/) -->

<svg
   xmlns:dc="http://purl.org/dc/elements/1.1/"
   xmlns:cc="http://creativecommons.org/ns#"
   xmlns:rdf="http://www.w3.org/1999/02/22-rdf-syntax-ns#"
   xmlns:svg="http://www.w3.org/2000/svg"
   xmlns="http://www.w3.org/2000/svg"
   xmlns:sodipodi="http://sodipodi.sourceforge.net/DTD/sodipodi-0.dtd"
   xmlns:inkscape="http://www.inkscape.org/namespaces/inkscape"
   width="96"
   height="96"
   viewBox="0 0 96 96"
   id="svg2"
   version="1.1"
   inkscape:version="0.91 r13725"
   sodipodi:docname="overlap.svg">
  <defs
     id="defs4">
    <marker
       inkscape:stockid="StopL"
       orient="auto"
       refY="0"
       refX="0"
       id="StopL"
       style="overflow:visible"
       inkscape:isstock="true">
      <path
         id="path4902"
         d="M 0,5.65 0,-5.65"
         style="fill:none;fill-opacity:0.75;fill-rule:evenodd;stroke:#000000;stroke-width:1pt;stroke-opacity:1"
         transform="scale(0.8,0.8)"
         inkscape:connector-curvature="0" />
    </marker>
    <marker
       inkscape:stockid="Arrow1Send"
       orient="auto"
       refY="0"
       refX="0"
       id="Arrow1Send"
       style="overflow:visible"
       inkscape:isstock="true">
      <path
         id="path4748"
         d="M 0,0 5,-5 -12.5,0 5,5 0,0 Z"
         style="fill:#000000;fill-opacity:1;fill-rule:evenodd;stroke:#000000;stroke-width:1pt;stroke-opacity:1"
         transform="matrix(-0.2,0,0,-0.2,-1.2,0)"
         inkscape:connector-curvature="0" />
    </marker>
    <marker
       style="overflow:visible"
       id="DistanceStart"
       refX="0"
       refY="0"
       orient="auto"
       inkscape:stockid="DistanceStart"
       inkscape:isstock="true">
      <g
         id="g2300"
         style="fill:#000000;fill-opacity:1;stroke:#000000;stroke-opacity:1">
        <path
           style="fill:#000000;fill-opacity:1;stroke:#000000;stroke-width:1.14999998;stroke-linecap:square;stroke-opacity:1"
           d="M 0,0 2,0"
           id="path2306"
           inkscape:connector-curvature="0" />
        <path
           style="fill:#000000;fill-opacity:1;fill-rule:evenodd;stroke:#000000;stroke-opacity:1"
           d="M 0,0 13,4 9,0 13,-4 0,0 Z"
           id="path2302"
           inkscape:connector-curvature="0" />
        <path
           style="fill:#000000;fill-opacity:1;stroke:#000000;stroke-width:1;stroke-linecap:square;stroke-opacity:1"
           d="M 0,-4 0,40"
           id="path2304"
           inkscape:connector-curvature="0" />
      </g>
    </marker>
  </defs>
  <sodipodi:namedview
     id="base"
     pagecolor="#ffffff"
     bordercolor="#666666"
     borderopacity="1.0"
     inkscape:pageopacity="0.0"
     inkscape:pageshadow="2"
     inkscape:zoom="0.9899495"
     inkscape:cx="-127.10314"
     inkscape:cy="-60.553041"
     inkscape:document-units="px"
     inkscape:current-layer="layer1"
     showgrid="false"
     units="px"
     inkscape:window-width="1332"
     inkscape:window-height="744"
     inkscape:window-x="0"
     inkscape:window-y="0"
     inkscape:window-maximized="1" />
  <metadata
     id="metadata7">
    <rdf:RDF>
      <cc:Work
         rdf:about="">
        <dc:format>image/svg+xml</dc:format>
        <dc:type
           rdf:resource="http://purl.org/dc/dcmitype/StillImage" />
        <dc:title></dc:title>
      </cc:Work>
    </rdf:RDF>
  </metadata>
  <g
     inkscape:label="Layer 1"
     inkscape:groupmode="layer"
     id="layer1"
     transform="translate(0,-956.3622)">
    <path
       style="fill:none;fill-rule:evenodd;stroke:#e6e6e6;stroke-width:1.98006546px;stroke-linecap:butt;stroke-linejoin:miter;stroke-opacity:1"
       d="m 1.0248455,1048.069 -0.0883956,-12.9059 2.6518733,9.2815 0.5303746,-22.1872 2.6518735,18.9166 2.1214986,-18.74 1.4143321,16.6185 2.475082,-31.469 2.475082,37.1263 1.06075,-50.20875 2.121498,16.97195 0.707167,-30.05464 3.182247,22.27574 1.591124,-41.81106 2.651874,16.7068 3.270644,-12.64074 2.121498,19.53553 2.828666,-8.22084 2.47508,6.62965 1.136306,-25.34067 2.010742,5.94514 1.626323,-5.62041 1.944708,34.56283 2.475081,-11.49151 1.325937,16.08803 2.74027,-10.69591 2.563476,18.12116 3.535831,-43.84439 2.1215,24.04374 c 0,0 3.889414,-21.9221 3.889414,-20.1543 0,1.768 3.889415,22.98302 3.889415,22.98302 l 2.121498,-15.55777 2.828666,21.92209 3.535831,-12.37541 1.060748,18.73992 3.535833,-6.71795 -0.707167,13.08245 3.182249,-10.25392 1.060749,13.08272 3.182248,-6.7182 c 0,0 -0.353584,31.469 0.353582,30.0546 0.707167,-1.4143 1.767916,-24.7508 1.767916,-24.7508 l 0.707168,10.9611 1.767915,-9.9004 3.182249,41.0157 -0.353583,-30.0546"
       id="path4696"
       inkscape:connector-curvature="0"
       sodipodi:nodetypes="cccccccccccccccccccccccccccccsccccccccccsccccc" />
    <path
       style="fill:none;fill-rule:evenodd;stroke:#ff7a7a;stroke-width:1.98006546px;stroke-linecap:butt;stroke-linejoin:miter;stroke-opacity:1"
       d="m 1.1132413,1030.9202 c 12.1155687,2.1214 25.6435347,-71.9144 36.7726447,-70.36321 9.457001,1.31813 24.043654,84.85991 44.551473,84.15301"
       id="path4698"
       inkscape:connector-curvature="0"
       sodipodi:nodetypes="csc" />
    <path
       style="fill:none;fill-rule:evenodd;stroke:#7a7aff;stroke-width:1.98006546px;stroke-linecap:butt;stroke-linejoin:miter;stroke-opacity:1"
       d="m 11.928333,1044.0051 c 36.131698,0.729 37.311775,-82.87528 52.683883,-83.0921 9.547471,-0.13464 16.264826,69.6559 30.408148,72.1312"
       id="path4698-3"
       inkscape:connector-curvature="0"
       sodipodi:nodetypes="csc" />
    <path
       style="fill:none;fill-rule:evenodd;stroke:#000000;stroke-width:0.79202622;stroke-linecap:butt;stroke-linejoin:miter;stroke-miterlimit:0.30000001;stroke-dasharray:none;stroke-opacity:1;marker-start:url(#StopL);marker-mid:url(#StopL);marker-end:url(#StopL)"
       d="m 38.118191,960.54154 -0.02768,63.04786 -0.03481,21.4594"
       id="path4727"
       inkscape:connector-curvature="0"
       sodipodi:nodetypes="ccc" />
  </g>
</svg>
